<svg width="1363" height="297" viewBox="0 0 1363 297" fill="none" xmlns="http://www.w3.org/2000/svg">
<path d="M0 15C0 6.71573 6.71573 0 15 0H37V297H15C6.71573 297 0 290.284 0 282V15Z" fill="#D26ACA"/>
<path d="M37 0H1363V297H37V0Z" fill="#F0F0F0"/>
<path d="M97.6934 49.4062H102.158L108.732 68.1973L115.307 49.4062H119.771L110.525 75H106.939L97.6934 49.4062ZM95.2852 49.4062H99.7324L100.541 67.7227V75H95.2852V49.4062ZM117.732 49.4062H122.197V75H116.924V67.7227L117.732 49.4062ZM131.848 55.9805V75H126.768V55.9805H131.848ZM126.451 51.0234C126.451 50.2852 126.709 49.6758 127.225 49.1953C127.74 48.7148 128.432 48.4746 129.299 48.4746C130.154 48.4746 130.84 48.7148 131.355 49.1953C131.883 49.6758 132.146 50.2852 132.146 51.0234C132.146 51.7617 131.883 52.3711 131.355 52.8516C130.84 53.332 130.154 53.5723 129.299 53.5723C128.432 53.5723 127.74 53.332 127.225 52.8516C126.709 52.3711 126.451 51.7617 126.451 51.0234ZM141.094 60.1289V75H136.031V55.9805H140.795L141.094 60.1289ZM146.824 55.8574L146.736 60.5508C146.49 60.5156 146.191 60.4863 145.84 60.4629C145.5 60.4277 145.189 60.4102 144.908 60.4102C144.193 60.4102 143.572 60.5039 143.045 60.6914C142.529 60.8672 142.096 61.1309 141.744 61.4824C141.404 61.834 141.146 62.2617 140.971 62.7656C140.807 63.2695 140.713 63.8438 140.689 64.4883L139.67 64.1719C139.67 62.9414 139.793 61.8105 140.039 60.7793C140.285 59.7363 140.643 58.8281 141.111 58.0547C141.592 57.2812 142.178 56.6836 142.869 56.2617C143.561 55.8398 144.352 55.6289 145.242 55.6289C145.523 55.6289 145.811 55.6523 146.104 55.6992C146.396 55.7344 146.637 55.7871 146.824 55.8574ZM156 71.3086L160.219 55.9805H165.51L159.094 75H155.895L156 71.3086ZM153.1 55.9805L157.336 71.3262L157.424 75H154.207L147.791 55.9805H153.1ZM177.762 70.7109V62.2383C177.762 61.6289 177.662 61.1074 177.463 60.6738C177.264 60.2285 176.953 59.8828 176.531 59.6367C176.121 59.3906 175.588 59.2676 174.932 59.2676C174.369 59.2676 173.883 59.3672 173.473 59.5664C173.062 59.7539 172.746 60.0293 172.523 60.3926C172.301 60.7441 172.189 61.1602 172.189 61.6406H167.127C167.127 60.832 167.314 60.0645 167.689 59.3379C168.064 58.6113 168.609 57.9727 169.324 57.4219C170.039 56.8594 170.889 56.4199 171.873 56.1035C172.869 55.7871 173.982 55.6289 175.213 55.6289C176.689 55.6289 178.002 55.875 179.15 56.3672C180.299 56.8594 181.201 57.5977 181.857 58.582C182.525 59.5664 182.859 60.7969 182.859 62.2734V70.4121C182.859 71.4551 182.924 72.3105 183.053 72.9785C183.182 73.6348 183.369 74.209 183.615 74.7012V75H178.5C178.254 74.4844 178.066 73.8398 177.938 73.0664C177.82 72.2812 177.762 71.4961 177.762 70.7109ZM178.43 63.416L178.465 66.2812H175.635C174.967 66.2812 174.387 66.3574 173.895 66.5098C173.402 66.6621 172.998 66.8789 172.682 67.1602C172.365 67.4297 172.131 67.7461 171.979 68.1094C171.838 68.4727 171.768 68.8711 171.768 69.3047C171.768 69.7383 171.867 70.1309 172.066 70.4824C172.266 70.8223 172.553 71.0918 172.928 71.291C173.303 71.4785 173.742 71.5723 174.246 71.5723C175.008 71.5723 175.67 71.4199 176.232 71.1152C176.795 70.8105 177.229 70.4355 177.533 69.9902C177.85 69.5449 178.014 69.123 178.025 68.7246L179.361 70.8691C179.174 71.3496 178.916 71.8477 178.588 72.3633C178.271 72.8789 177.867 73.3652 177.375 73.8223C176.883 74.2676 176.291 74.6367 175.6 74.9297C174.908 75.2109 174.088 75.3516 173.139 75.3516C171.932 75.3516 170.836 75.1113 169.852 74.6309C168.879 74.1387 168.105 73.4648 167.531 72.6094C166.969 71.7422 166.688 70.7578 166.688 69.6562C166.688 68.6602 166.875 67.7754 167.25 67.002C167.625 66.2285 168.176 65.5781 168.902 65.0508C169.641 64.5117 170.561 64.1074 171.662 63.8379C172.764 63.5566 174.041 63.416 175.494 63.416H178.43ZM196.078 55.9805V59.5664H185.004V55.9805H196.078ZM187.746 51.2871H192.809V69.2695C192.809 69.8203 192.879 70.2422 193.02 70.5352C193.172 70.8281 193.395 71.0332 193.688 71.1504C193.98 71.2559 194.35 71.3086 194.795 71.3086C195.111 71.3086 195.393 71.2969 195.639 71.2734C195.896 71.2383 196.113 71.2031 196.289 71.168L196.307 74.8945C195.873 75.0352 195.404 75.1465 194.9 75.2285C194.396 75.3105 193.84 75.3516 193.23 75.3516C192.117 75.3516 191.145 75.1699 190.312 74.8066C189.492 74.4316 188.859 73.834 188.414 73.0137C187.969 72.1934 187.746 71.1152 187.746 69.7793V51.2871ZM218.262 63.7676H211.688L211.652 60.1465H217.172C218.145 60.1465 218.941 60.0234 219.562 59.7773C220.184 59.5195 220.646 59.1504 220.951 58.6699C221.268 58.1777 221.426 57.5801 221.426 56.877C221.426 56.0801 221.273 55.4355 220.969 54.9434C220.676 54.4512 220.213 54.0938 219.58 53.8711C218.959 53.6484 218.156 53.5371 217.172 53.5371H213.516V75H208.242V49.4062H217.172C218.66 49.4062 219.99 49.5469 221.162 49.8281C222.346 50.1094 223.348 50.5371 224.168 51.1113C224.988 51.6855 225.615 52.4121 226.049 53.291C226.482 54.1582 226.699 55.1895 226.699 56.3848C226.699 57.4395 226.459 58.4121 225.979 59.3027C225.51 60.1934 224.766 60.9199 223.746 61.4824C222.738 62.0449 221.42 62.3555 219.791 62.4141L218.262 63.7676ZM218.033 75H210.246L212.303 70.8867H218.033C218.959 70.8867 219.715 70.7402 220.301 70.4473C220.887 70.1426 221.32 69.7324 221.602 69.2168C221.883 68.7012 222.023 68.1094 222.023 67.4414C222.023 66.6914 221.895 66.041 221.637 65.4902C221.391 64.9395 220.992 64.5176 220.441 64.2246C219.891 63.9199 219.164 63.7676 218.262 63.7676H213.182L213.217 60.1465H219.545L220.758 61.5703C222.316 61.5469 223.57 61.8223 224.52 62.3965C225.48 62.959 226.178 63.6914 226.611 64.5938C227.057 65.4961 227.279 66.4629 227.279 67.4941C227.279 69.1348 226.922 70.5176 226.207 71.6426C225.492 72.7559 224.443 73.5938 223.061 74.1562C221.689 74.7188 220.014 75 218.033 75ZM241.184 70.7109V62.2383C241.184 61.6289 241.084 61.1074 240.885 60.6738C240.686 60.2285 240.375 59.8828 239.953 59.6367C239.543 59.3906 239.01 59.2676 238.354 59.2676C237.791 59.2676 237.305 59.3672 236.895 59.5664C236.484 59.7539 236.168 60.0293 235.945 60.3926C235.723 60.7441 235.611 61.1602 235.611 61.6406H230.549C230.549 60.832 230.736 60.0645 231.111 59.3379C231.486 58.6113 232.031 57.9727 232.746 57.4219C233.461 56.8594 234.311 56.4199 235.295 56.1035C236.291 55.7871 237.404 55.6289 238.635 55.6289C240.111 55.6289 241.424 55.875 242.572 56.3672C243.721 56.8594 244.623 57.5977 245.279 58.582C245.947 59.5664 246.281 60.7969 246.281 62.2734V70.4121C246.281 71.4551 246.346 72.3105 246.475 72.9785C246.604 73.6348 246.791 74.209 247.037 74.7012V75H241.922C241.676 74.4844 241.488 73.8398 241.359 73.0664C241.242 72.2812 241.184 71.4961 241.184 70.7109ZM241.852 63.416L241.887 66.2812H239.057C238.389 66.2812 237.809 66.3574 237.316 66.5098C236.824 66.6621 236.42 66.8789 236.104 67.1602C235.787 67.4297 235.553 67.7461 235.4 68.1094C235.26 68.4727 235.189 68.8711 235.189 69.3047C235.189 69.7383 235.289 70.1309 235.488 70.4824C235.688 70.8223 235.975 71.0918 236.35 71.291C236.725 71.4785 237.164 71.5723 237.668 71.5723C238.43 71.5723 239.092 71.4199 239.654 71.1152C240.217 70.8105 240.65 70.4355 240.955 69.9902C241.271 69.5449 241.436 69.123 241.447 68.7246L242.783 70.8691C242.596 71.3496 242.338 71.8477 242.01 72.3633C241.693 72.8789 241.289 73.3652 240.797 73.8223C240.305 74.2676 239.713 74.6367 239.021 74.9297C238.33 75.2109 237.51 75.3516 236.561 75.3516C235.354 75.3516 234.258 75.1113 233.273 74.6309C232.301 74.1387 231.527 73.4648 230.953 72.6094C230.391 71.7422 230.109 70.7578 230.109 69.6562C230.109 68.6602 230.297 67.7754 230.672 67.002C231.047 66.2285 231.598 65.5781 232.324 65.0508C233.062 64.5117 233.982 64.1074 235.084 63.8379C236.186 63.5566 237.463 63.416 238.916 63.416H241.852ZM255.246 60.1289V75H250.184V55.9805H254.947L255.246 60.1289ZM260.977 55.8574L260.889 60.5508C260.643 60.5156 260.344 60.4863 259.992 60.4629C259.652 60.4277 259.342 60.4102 259.061 60.4102C258.346 60.4102 257.725 60.5039 257.197 60.6914C256.682 60.8672 256.248 61.1309 255.896 61.4824C255.557 61.834 255.299 62.2617 255.123 62.7656C254.959 63.2695 254.865 63.8438 254.842 64.4883L253.822 64.1719C253.822 62.9414 253.945 61.8105 254.191 60.7793C254.438 59.7363 254.795 58.8281 255.264 58.0547C255.744 57.2812 256.33 56.6836 257.021 56.2617C257.713 55.8398 258.504 55.6289 259.395 55.6289C259.676 55.6289 259.963 55.6523 260.256 55.6992C260.549 55.7344 260.789 55.7871 260.977 55.8574ZM273.035 70.7109V62.2383C273.035 61.6289 272.936 61.1074 272.736 60.6738C272.537 60.2285 272.227 59.8828 271.805 59.6367C271.395 59.3906 270.861 59.2676 270.205 59.2676C269.643 59.2676 269.156 59.3672 268.746 59.5664C268.336 59.7539 268.02 60.0293 267.797 60.3926C267.574 60.7441 267.463 61.1602 267.463 61.6406H262.4C262.4 60.832 262.588 60.0645 262.963 59.3379C263.338 58.6113 263.883 57.9727 264.598 57.4219C265.312 56.8594 266.162 56.4199 267.146 56.1035C268.143 55.7871 269.256 55.6289 270.486 55.6289C271.963 55.6289 273.275 55.875 274.424 56.3672C275.572 56.8594 276.475 57.5977 277.131 58.582C277.799 59.5664 278.133 60.7969 278.133 62.2734V70.4121C278.133 71.4551 278.197 72.3105 278.326 72.9785C278.455 73.6348 278.643 74.209 278.889 74.7012V75H273.773C273.527 74.4844 273.34 73.8398 273.211 73.0664C273.094 72.2812 273.035 71.4961 273.035 70.7109ZM273.703 63.416L273.738 66.2812H270.908C270.24 66.2812 269.66 66.3574 269.168 66.5098C268.676 66.6621 268.271 66.8789 267.955 67.1602C267.639 67.4297 267.404 67.7461 267.252 68.1094C267.111 68.4727 267.041 68.8711 267.041 69.3047C267.041 69.7383 267.141 70.1309 267.34 70.4824C267.539 70.8223 267.826 71.0918 268.201 71.291C268.576 71.4785 269.016 71.5723 269.52 71.5723C270.281 71.5723 270.943 71.4199 271.506 71.1152C272.068 70.8105 272.502 70.4355 272.807 69.9902C273.123 69.5449 273.287 69.123 273.299 68.7246L274.635 70.8691C274.447 71.3496 274.189 71.8477 273.861 72.3633C273.545 72.8789 273.141 73.3652 272.648 73.8223C272.156 74.2676 271.564 74.6367 270.873 74.9297C270.182 75.2109 269.361 75.3516 268.412 75.3516C267.205 75.3516 266.109 75.1113 265.125 74.6309C264.152 74.1387 263.379 73.4648 262.805 72.6094C262.242 71.7422 261.961 70.7578 261.961 69.6562C261.961 68.6602 262.148 67.7754 262.523 67.002C262.898 66.2285 263.449 65.5781 264.176 65.0508C264.914 64.5117 265.834 64.1074 266.936 63.8379C268.037 63.5566 269.314 63.416 270.768 63.416H273.703ZM287.098 47.9824V75H282.035V47.9824H287.098ZM299.086 55.9805L290.824 65.4023L286.395 69.8848L284.549 66.2285L288.064 61.7637L293.004 55.9805H299.086ZM293.83 75L288.205 66.2109L291.703 63.1523L299.666 75H293.83ZM311.531 70.7109V62.2383C311.531 61.6289 311.432 61.1074 311.232 60.6738C311.033 60.2285 310.723 59.8828 310.301 59.6367C309.891 59.3906 309.357 59.2676 308.701 59.2676C308.139 59.2676 307.652 59.3672 307.242 59.5664C306.832 59.7539 306.516 60.0293 306.293 60.3926C306.07 60.7441 305.959 61.1602 305.959 61.6406H300.896C300.896 60.832 301.084 60.0645 301.459 59.3379C301.834 58.6113 302.379 57.9727 303.094 57.4219C303.809 56.8594 304.658 56.4199 305.643 56.1035C306.639 55.7871 307.752 55.6289 308.982 55.6289C310.459 55.6289 311.771 55.875 312.92 56.3672C314.068 56.8594 314.971 57.5977 315.627 58.582C316.295 59.5664 316.629 60.7969 316.629 62.2734V70.4121C316.629 71.4551 316.693 72.3105 316.822 72.9785C316.951 73.6348 317.139 74.209 317.385 74.7012V75H312.27C312.023 74.4844 311.836 73.8398 311.707 73.0664C311.59 72.2812 311.531 71.4961 311.531 70.7109ZM312.199 63.416L312.234 66.2812H309.404C308.736 66.2812 308.156 66.3574 307.664 66.5098C307.172 66.6621 306.768 66.8789 306.451 67.1602C306.135 67.4297 305.9 67.7461 305.748 68.1094C305.607 68.4727 305.537 68.8711 305.537 69.3047C305.537 69.7383 305.637 70.1309 305.836 70.4824C306.035 70.8223 306.322 71.0918 306.697 71.291C307.072 71.4785 307.512 71.5723 308.016 71.5723C308.777 71.5723 309.439 71.4199 310.002 71.1152C310.564 70.8105 310.998 70.4355 311.303 69.9902C311.619 69.5449 311.783 69.123 311.795 68.7246L313.131 70.8691C312.943 71.3496 312.686 71.8477 312.357 72.3633C312.041 72.8789 311.637 73.3652 311.145 73.8223C310.652 74.2676 310.061 74.6367 309.369 74.9297C308.678 75.2109 307.857 75.3516 306.908 75.3516C305.701 75.3516 304.605 75.1113 303.621 74.6309C302.648 74.1387 301.875 73.4648 301.301 72.6094C300.738 71.7422 300.457 70.7578 300.457 69.6562C300.457 68.6602 300.645 67.7754 301.02 67.002C301.395 66.2285 301.945 65.5781 302.672 65.0508C303.41 64.5117 304.33 64.1074 305.432 63.8379C306.533 63.5566 307.811 63.416 309.264 63.416H312.199ZM329.848 55.9805V59.5664H318.773V55.9805H329.848ZM321.516 51.2871H326.578V69.2695C326.578 69.8203 326.648 70.2422 326.789 70.5352C326.941 70.8281 327.164 71.0332 327.457 71.1504C327.75 71.2559 328.119 71.3086 328.564 71.3086C328.881 71.3086 329.162 71.2969 329.408 71.2734C329.666 71.2383 329.883 71.2031 330.059 71.168L330.076 74.8945C329.643 75.0352 329.174 75.1465 328.67 75.2285C328.166 75.3105 327.609 75.3516 327 75.3516C325.887 75.3516 324.914 75.1699 324.082 74.8066C323.262 74.4316 322.629 73.834 322.184 73.0137C321.738 72.1934 321.516 71.1152 321.516 69.7793V51.2871Z" fill="#888888"/>
<path d="M118.676 126.52H128.246C128.118 129.29 127.371 131.733 126.004 133.848C124.637 135.962 122.741 137.612 120.316 138.797C117.91 139.964 115.066 140.547 111.785 140.547C109.124 140.547 106.745 140.1 104.648 139.207C102.57 138.314 100.802 137.029 99.3438 135.352C97.9036 133.674 96.8008 131.642 96.0352 129.254C95.2878 126.866 94.9141 124.177 94.9141 121.188V119.027C94.9141 116.038 95.306 113.349 96.0898 110.961C96.8919 108.555 98.0221 106.513 99.4805 104.836C100.957 103.141 102.725 101.846 104.785 100.953C106.845 100.06 109.133 99.6133 111.648 99.6133C115.112 99.6133 118.038 100.233 120.426 101.473C122.814 102.712 124.664 104.417 125.977 106.586C127.289 108.737 128.064 111.189 128.301 113.941H118.73C118.694 112.447 118.439 111.198 117.965 110.195C117.491 109.174 116.743 108.409 115.723 107.898C114.702 107.388 113.344 107.133 111.648 107.133C110.464 107.133 109.434 107.352 108.559 107.789C107.684 108.227 106.954 108.919 106.371 109.867C105.788 110.815 105.35 112.046 105.059 113.559C104.785 115.053 104.648 116.858 104.648 118.973V121.188C104.648 123.302 104.776 125.107 105.031 126.602C105.286 128.096 105.697 129.318 106.262 130.266C106.827 131.214 107.556 131.915 108.449 132.371C109.361 132.809 110.473 133.027 111.785 133.027C113.243 133.027 114.474 132.799 115.477 132.344C116.479 131.87 117.254 131.159 117.801 130.211C118.348 129.245 118.639 128.014 118.676 126.52ZM147.715 132.562V120.367C147.715 119.529 147.596 118.809 147.359 118.207C147.122 117.605 146.749 117.141 146.238 116.812C145.728 116.466 145.044 116.293 144.188 116.293C143.495 116.293 142.902 116.411 142.41 116.648C141.918 116.885 141.544 117.241 141.289 117.715C141.034 118.189 140.906 118.79 140.906 119.52H131.691C131.691 118.152 131.992 116.885 132.594 115.719C133.214 114.534 134.089 113.504 135.219 112.629C136.367 111.754 137.734 111.079 139.32 110.605C140.924 110.113 142.711 109.867 144.68 109.867C147.031 109.867 149.128 110.259 150.969 111.043C152.828 111.827 154.296 113.003 155.371 114.57C156.447 116.12 156.984 118.07 156.984 120.422V132.535C156.984 134.467 157.094 135.935 157.312 136.938C157.531 137.922 157.841 138.788 158.242 139.535V140H149C148.562 139.089 148.234 137.977 148.016 136.664C147.815 135.333 147.715 133.966 147.715 132.562ZM148.836 121.926L148.891 126.848H144.816C143.96 126.848 143.23 126.966 142.629 127.203C142.046 127.44 141.572 127.768 141.207 128.188C140.861 128.589 140.605 129.044 140.441 129.555C140.296 130.065 140.223 130.603 140.223 131.168C140.223 131.715 140.35 132.207 140.605 132.645C140.879 133.064 141.243 133.392 141.699 133.629C142.155 133.866 142.665 133.984 143.23 133.984C144.251 133.984 145.117 133.793 145.828 133.41C146.557 133.009 147.113 132.526 147.496 131.961C147.879 131.396 148.07 130.867 148.07 130.375L150.094 134.148C149.729 134.878 149.31 135.616 148.836 136.363C148.38 137.111 147.806 137.803 147.113 138.441C146.439 139.061 145.609 139.572 144.625 139.973C143.641 140.355 142.447 140.547 141.043 140.547C139.22 140.547 137.543 140.173 136.012 139.426C134.499 138.678 133.286 137.639 132.375 136.309C131.464 134.96 131.008 133.41 131.008 131.66C131.008 130.129 131.281 128.762 131.828 127.559C132.393 126.355 133.241 125.335 134.371 124.496C135.501 123.658 136.941 123.02 138.691 122.582C140.441 122.145 142.501 121.926 144.871 121.926H148.836ZM171.395 117.742V140H162.18V110.414H170.793L171.395 117.742ZM180.145 110.195L179.98 118.754C179.616 118.717 179.124 118.672 178.504 118.617C177.884 118.562 177.365 118.535 176.945 118.535C175.87 118.535 174.94 118.663 174.156 118.918C173.391 119.155 172.753 119.52 172.242 120.012C171.75 120.486 171.385 121.087 171.148 121.816C170.93 122.546 170.829 123.393 170.848 124.359L169.18 123.266C169.18 121.279 169.371 119.474 169.754 117.852C170.155 116.211 170.72 114.798 171.449 113.613C172.178 112.41 173.062 111.49 174.102 110.852C175.141 110.195 176.307 109.867 177.602 109.867C178.057 109.867 178.504 109.895 178.941 109.949C179.397 110.004 179.798 110.086 180.145 110.195ZM197.098 140.547C194.691 140.547 192.54 140.173 190.645 139.426C188.749 138.66 187.145 137.612 185.832 136.281C184.538 134.951 183.544 133.419 182.852 131.688C182.177 129.956 181.84 128.124 181.84 126.191V125.152C181.84 122.983 182.141 120.978 182.742 119.137C183.344 117.277 184.237 115.655 185.422 114.27C186.607 112.884 188.092 111.809 189.879 111.043C191.665 110.259 193.743 109.867 196.113 109.867C198.21 109.867 200.087 110.204 201.746 110.879C203.405 111.553 204.809 112.52 205.957 113.777C207.124 115.035 208.008 116.557 208.609 118.344C209.229 120.13 209.539 122.135 209.539 124.359V128.105H185.367V122.336H200.543V121.625C200.561 120.641 200.388 119.802 200.023 119.109C199.677 118.417 199.167 117.888 198.492 117.523C197.818 117.159 196.997 116.977 196.031 116.977C195.029 116.977 194.199 117.195 193.543 117.633C192.905 118.07 192.404 118.672 192.039 119.438C191.693 120.185 191.447 121.051 191.301 122.035C191.155 123.02 191.082 124.059 191.082 125.152V126.191C191.082 127.285 191.228 128.279 191.52 129.172C191.829 130.065 192.267 130.831 192.832 131.469C193.415 132.089 194.108 132.572 194.91 132.918C195.73 133.264 196.66 133.438 197.699 133.438C198.957 133.438 200.197 133.201 201.418 132.727C202.639 132.253 203.688 131.469 204.562 130.375L208.746 135.352C208.145 136.208 207.288 137.038 206.176 137.84C205.082 138.642 203.77 139.298 202.238 139.809C200.707 140.301 198.993 140.547 197.098 140.547ZM229.609 126.492H219.711V119.082H229.609C230.958 119.082 232.052 118.854 232.891 118.398C233.729 117.943 234.34 117.314 234.723 116.512C235.124 115.691 235.324 114.771 235.324 113.75C235.324 112.656 235.124 111.645 234.723 110.715C234.34 109.785 233.729 109.038 232.891 108.473C232.052 107.889 230.958 107.598 229.609 107.598H223.32V140H213.723V100.188H229.609C232.799 100.188 235.543 100.771 237.84 101.938C240.155 103.104 241.932 104.708 243.172 106.75C244.411 108.773 245.031 111.089 245.031 113.695C245.031 116.266 244.411 118.508 243.172 120.422C241.932 122.336 240.155 123.831 237.84 124.906C235.543 125.964 232.799 126.492 229.609 126.492ZM259.059 117.742V140H249.844V110.414H258.457L259.059 117.742ZM267.809 110.195L267.645 118.754C267.28 118.717 266.788 118.672 266.168 118.617C265.548 118.562 265.029 118.535 264.609 118.535C263.534 118.535 262.604 118.663 261.82 118.918C261.055 119.155 260.417 119.52 259.906 120.012C259.414 120.486 259.049 121.087 258.812 121.816C258.594 122.546 258.493 123.393 258.512 124.359L256.844 123.266C256.844 121.279 257.035 119.474 257.418 117.852C257.819 116.211 258.384 114.798 259.113 113.613C259.842 112.41 260.727 111.49 261.766 110.852C262.805 110.195 263.971 109.867 265.266 109.867C265.721 109.867 266.168 109.895 266.605 109.949C267.061 110.004 267.462 110.086 267.809 110.195ZM268.848 125.508V124.934C268.848 122.764 269.158 120.768 269.777 118.945C270.397 117.104 271.309 115.509 272.512 114.16C273.715 112.811 275.201 111.763 276.969 111.016C278.737 110.25 280.779 109.867 283.094 109.867C285.427 109.867 287.478 110.25 289.246 111.016C291.033 111.763 292.527 112.811 293.73 114.16C294.934 115.509 295.845 117.104 296.465 118.945C297.085 120.768 297.395 122.764 297.395 124.934V125.508C297.395 127.659 297.085 129.655 296.465 131.496C295.845 133.319 294.934 134.914 293.73 136.281C292.527 137.63 291.042 138.678 289.273 139.426C287.505 140.173 285.464 140.547 283.148 140.547C280.833 140.547 278.783 140.173 276.996 139.426C275.21 138.678 273.715 137.63 272.512 136.281C271.309 134.914 270.397 133.319 269.777 131.496C269.158 129.655 268.848 127.659 268.848 125.508ZM278.062 124.934V125.508C278.062 126.62 278.145 127.659 278.309 128.625C278.473 129.591 278.746 130.439 279.129 131.168C279.512 131.879 280.031 132.435 280.688 132.836C281.344 133.237 282.164 133.438 283.148 133.438C284.115 133.438 284.917 133.237 285.555 132.836C286.211 132.435 286.73 131.879 287.113 131.168C287.496 130.439 287.77 129.591 287.934 128.625C288.098 127.659 288.18 126.62 288.18 125.508V124.934C288.18 123.858 288.098 122.846 287.934 121.898C287.77 120.932 287.496 120.085 287.113 119.355C286.73 118.608 286.211 118.025 285.555 117.605C284.898 117.186 284.078 116.977 283.094 116.977C282.128 116.977 281.316 117.186 280.66 117.605C280.022 118.025 279.512 118.608 279.129 119.355C278.746 120.085 278.473 120.932 278.309 121.898C278.145 122.846 278.062 123.858 278.062 124.934Z" fill="black"/>
<rect x="93" y="178" width="1214" height="77" rx="10" fill="#D3D3D3"/>
<rect x="111" y="196" width="115" height="41" rx="3" fill="#424242"/>
<path d="M134.126 210.203H139.162C140.146 210.203 141.002 210.35 141.729 210.643C142.455 210.936 143.015 211.369 143.407 211.943C143.806 212.518 144.005 213.227 144.005 214.07C144.005 214.803 143.891 215.415 143.662 215.907C143.434 216.399 143.114 216.807 142.704 217.129C142.3 217.445 141.828 217.706 141.289 217.911L140.278 218.482H136.051L136.033 216.101H139.162C139.555 216.101 139.88 216.03 140.138 215.89C140.396 215.749 140.589 215.55 140.718 215.292C140.853 215.028 140.92 214.715 140.92 214.352C140.92 213.982 140.853 213.666 140.718 213.402C140.583 213.139 140.384 212.937 140.12 212.796C139.862 212.655 139.543 212.585 139.162 212.585H137.211V223H134.126V210.203ZM141.131 223L138.301 217.34L141.57 217.322L144.436 222.868V223H141.131ZM150.333 223.176C149.56 223.176 148.868 223.056 148.259 222.815C147.649 222.569 147.134 222.232 146.712 221.805C146.296 221.377 145.977 220.885 145.754 220.328C145.537 219.771 145.429 219.183 145.429 218.562V218.228C145.429 217.53 145.525 216.886 145.719 216.294C145.912 215.696 146.199 215.175 146.58 214.729C146.961 214.284 147.438 213.938 148.013 213.692C148.587 213.44 149.255 213.314 150.017 213.314C150.69 213.314 151.294 213.423 151.827 213.64C152.36 213.856 152.812 214.167 153.181 214.571C153.556 214.976 153.84 215.465 154.033 216.039C154.232 216.613 154.332 217.258 154.332 217.973V219.177H146.562V217.322H151.44V217.094C151.446 216.777 151.391 216.508 151.273 216.285C151.162 216.062 150.998 215.893 150.781 215.775C150.564 215.658 150.301 215.6 149.99 215.6C149.668 215.6 149.401 215.67 149.19 215.811C148.985 215.951 148.824 216.145 148.707 216.391C148.596 216.631 148.517 216.909 148.47 217.226C148.423 217.542 148.399 217.876 148.399 218.228V218.562C148.399 218.913 148.446 219.232 148.54 219.52C148.64 219.807 148.78 220.053 148.962 220.258C149.149 220.457 149.372 220.612 149.63 220.724C149.894 220.835 150.192 220.891 150.526 220.891C150.931 220.891 151.329 220.814 151.722 220.662C152.114 220.51 152.451 220.258 152.732 219.906L154.077 221.506C153.884 221.781 153.608 222.048 153.251 222.306C152.899 222.563 152.478 222.774 151.985 222.938C151.493 223.097 150.942 223.176 150.333 223.176ZM160.476 220.609V216.689C160.476 216.42 160.438 216.188 160.361 215.995C160.285 215.802 160.165 215.652 160.001 215.547C159.837 215.436 159.617 215.38 159.342 215.38C159.119 215.38 158.929 215.418 158.771 215.494C158.612 215.57 158.492 215.685 158.41 215.837C158.328 215.989 158.287 216.183 158.287 216.417H155.325C155.325 215.978 155.422 215.57 155.615 215.195C155.814 214.814 156.096 214.483 156.459 214.202C156.828 213.921 157.268 213.704 157.777 213.552C158.293 213.394 158.867 213.314 159.5 213.314C160.256 213.314 160.93 213.44 161.521 213.692C162.119 213.944 162.591 214.322 162.937 214.826C163.282 215.324 163.455 215.951 163.455 216.707V220.601C163.455 221.222 163.49 221.693 163.561 222.016C163.631 222.332 163.73 222.61 163.859 222.851V223H160.889C160.748 222.707 160.643 222.35 160.572 221.928C160.508 221.5 160.476 221.061 160.476 220.609ZM160.836 217.19L160.854 218.772H159.544C159.269 218.772 159.034 218.811 158.841 218.887C158.653 218.963 158.501 219.068 158.384 219.203C158.272 219.332 158.19 219.479 158.138 219.643C158.091 219.807 158.067 219.979 158.067 220.161C158.067 220.337 158.108 220.495 158.19 220.636C158.278 220.771 158.396 220.876 158.542 220.952C158.688 221.028 158.853 221.066 159.034 221.066C159.362 221.066 159.641 221.005 159.869 220.882C160.104 220.753 160.282 220.598 160.405 220.416C160.528 220.234 160.59 220.064 160.59 219.906L161.24 221.119C161.123 221.354 160.988 221.591 160.836 221.831C160.689 222.071 160.505 222.294 160.282 222.499C160.065 222.698 159.799 222.862 159.482 222.991C159.166 223.114 158.782 223.176 158.331 223.176C157.745 223.176 157.206 223.056 156.714 222.815C156.228 222.575 155.838 222.241 155.545 221.813C155.252 221.38 155.105 220.882 155.105 220.319C155.105 219.827 155.193 219.388 155.369 219.001C155.551 218.614 155.823 218.286 156.187 218.017C156.55 217.747 157.013 217.542 157.575 217.401C158.138 217.261 158.8 217.19 159.562 217.19H160.836ZM169.115 220.891C169.391 220.891 169.625 220.841 169.818 220.741C170.018 220.636 170.167 220.489 170.267 220.302C170.372 220.108 170.422 219.877 170.416 219.607H173.202C173.208 220.322 173.032 220.949 172.675 221.488C172.323 222.021 171.843 222.438 171.233 222.736C170.63 223.029 169.947 223.176 169.186 223.176C168.441 223.176 167.791 223.056 167.234 222.815C166.678 222.569 166.212 222.229 165.837 221.796C165.468 221.356 165.189 220.844 165.002 220.258C164.82 219.672 164.729 219.036 164.729 218.351V218.148C164.729 217.463 164.82 216.827 165.002 216.241C165.189 215.649 165.468 215.137 165.837 214.703C166.212 214.264 166.675 213.924 167.226 213.684C167.782 213.438 168.43 213.314 169.168 213.314C169.959 213.314 170.656 213.464 171.26 213.763C171.869 214.062 172.347 214.495 172.692 215.063C173.038 215.632 173.208 216.32 173.202 217.129H170.416C170.422 216.842 170.378 216.584 170.284 216.355C170.19 216.127 170.044 215.945 169.845 215.811C169.651 215.67 169.402 215.6 169.098 215.6C168.793 215.6 168.547 215.667 168.359 215.802C168.172 215.937 168.028 216.124 167.929 216.364C167.835 216.599 167.771 216.868 167.735 217.173C167.706 217.478 167.691 217.803 167.691 218.148V218.351C167.691 218.702 167.706 219.033 167.735 219.344C167.771 219.648 167.838 219.918 167.938 220.152C168.037 220.381 168.181 220.562 168.368 220.697C168.556 220.826 168.805 220.891 169.115 220.891ZM179.478 213.49V215.547H173.747V213.49H179.478ZM174.951 211.126H177.913V219.897C177.913 220.149 177.942 220.346 178.001 220.486C178.06 220.621 178.159 220.718 178.3 220.776C178.446 220.829 178.64 220.855 178.88 220.855C179.05 220.855 179.19 220.853 179.302 220.847C179.413 220.835 179.519 220.82 179.618 220.803V222.921C179.366 223.003 179.103 223.064 178.827 223.105C178.552 223.152 178.259 223.176 177.948 223.176C177.315 223.176 176.773 223.076 176.322 222.877C175.877 222.678 175.537 222.364 175.303 221.937C175.068 221.509 174.951 220.952 174.951 220.267V211.126ZM185.331 221.611C185.331 221.189 185.483 220.838 185.788 220.557C186.093 220.27 186.485 220.126 186.966 220.126C187.452 220.126 187.845 220.27 188.144 220.557C188.448 220.838 188.601 221.189 188.601 221.611C188.601 222.033 188.448 222.388 188.144 222.675C187.845 222.956 187.452 223.097 186.966 223.097C186.485 223.097 186.093 222.956 185.788 222.675C185.483 222.388 185.331 222.033 185.331 221.611ZM190.807 213.49H193.777V223.308C193.777 224.069 193.631 224.711 193.338 225.232C193.045 225.76 192.626 226.158 192.081 226.428C191.536 226.703 190.886 226.841 190.13 226.841C189.878 226.841 189.646 226.829 189.436 226.806C189.219 226.788 188.981 226.75 188.724 226.691V224.45C188.876 224.474 189.017 224.491 189.146 224.503C189.274 224.521 189.415 224.529 189.567 224.529C189.837 224.529 190.062 224.485 190.244 224.397C190.426 224.31 190.563 224.175 190.657 223.993C190.757 223.812 190.807 223.583 190.807 223.308V213.49ZM190.587 211.038C190.587 210.616 190.739 210.271 191.044 210.001C191.349 209.731 191.744 209.597 192.23 209.597C192.717 209.597 193.112 209.731 193.417 210.001C193.722 210.271 193.874 210.616 193.874 211.038C193.874 211.46 193.722 211.806 193.417 212.075C193.112 212.345 192.717 212.479 192.23 212.479C191.744 212.479 191.349 212.345 191.044 212.075C190.739 211.806 190.587 211.46 190.587 211.038ZM200.439 220.328C200.439 220.164 200.384 220.023 200.272 219.906C200.167 219.783 199.979 219.672 199.71 219.572C199.44 219.467 199.062 219.361 198.576 219.256C198.113 219.156 197.677 219.024 197.267 218.86C196.862 218.696 196.508 218.497 196.203 218.263C195.898 218.028 195.658 217.75 195.482 217.428C195.312 217.105 195.228 216.736 195.228 216.32C195.228 215.916 195.312 215.535 195.482 215.178C195.658 214.814 195.913 214.495 196.247 214.22C196.587 213.938 197 213.719 197.486 213.561C197.973 213.396 198.526 213.314 199.147 213.314C200.003 213.314 200.741 213.446 201.362 213.71C201.983 213.968 202.461 214.331 202.795 214.8C203.135 215.263 203.305 215.799 203.305 216.408H200.343C200.343 216.168 200.302 215.963 200.22 215.793C200.144 215.623 200.018 215.494 199.842 215.406C199.666 215.312 199.432 215.266 199.139 215.266C198.934 215.266 198.746 215.304 198.576 215.38C198.412 215.456 198.28 215.562 198.181 215.696C198.081 215.831 198.031 215.989 198.031 216.171C198.031 216.3 198.061 216.417 198.119 216.522C198.184 216.622 198.28 216.716 198.409 216.804C198.538 216.886 198.702 216.962 198.901 217.032C199.101 217.097 199.341 217.155 199.622 217.208C200.261 217.325 200.858 217.492 201.415 217.709C201.972 217.926 202.423 218.233 202.769 218.632C203.12 219.03 203.296 219.566 203.296 220.24C203.296 220.662 203.199 221.052 203.006 221.409C202.812 221.761 202.534 222.071 202.171 222.341C201.808 222.604 201.371 222.81 200.861 222.956C200.352 223.103 199.777 223.176 199.139 223.176C198.23 223.176 197.463 223.015 196.836 222.692C196.209 222.364 195.734 221.954 195.412 221.462C195.096 220.964 194.938 220.46 194.938 219.95H197.697C197.709 220.243 197.779 220.483 197.908 220.671C198.043 220.858 198.222 220.996 198.444 221.084C198.667 221.172 198.925 221.216 199.218 221.216C199.487 221.216 199.71 221.178 199.886 221.102C200.067 221.025 200.205 220.923 200.299 220.794C200.393 220.659 200.439 220.504 200.439 220.328Z" fill="white"/>
<rect x="111" y="196" width="115" height="41" rx="3" stroke="#424242" stroke-width="4"/>
<rect x="246" y="196" width="130" height="41" rx="3" fill="#424242"/>
<path d="M291.541 210.203V223H288.465L283.938 215.037V223H280.854V210.203H283.938L288.465 218.166V210.203H291.541ZM292.982 218.342V218.157C292.982 217.46 293.082 216.818 293.281 216.232C293.48 215.641 293.773 215.128 294.16 214.694C294.547 214.261 295.024 213.924 295.593 213.684C296.161 213.438 296.817 213.314 297.562 213.314C298.312 213.314 298.971 213.438 299.539 213.684C300.113 213.924 300.594 214.261 300.98 214.694C301.367 215.128 301.66 215.641 301.859 216.232C302.059 216.818 302.158 217.46 302.158 218.157V218.342C302.158 219.033 302.059 219.675 301.859 220.267C301.66 220.853 301.367 221.365 300.98 221.805C300.594 222.238 300.116 222.575 299.548 222.815C298.979 223.056 298.323 223.176 297.579 223.176C296.835 223.176 296.176 223.056 295.602 222.815C295.027 222.575 294.547 222.238 294.16 221.805C293.773 221.365 293.48 220.853 293.281 220.267C293.082 219.675 292.982 219.033 292.982 218.342ZM295.944 218.157V218.342C295.944 218.699 295.971 219.033 296.023 219.344C296.076 219.654 296.164 219.927 296.287 220.161C296.41 220.39 296.577 220.568 296.788 220.697C296.999 220.826 297.263 220.891 297.579 220.891C297.89 220.891 298.147 220.826 298.353 220.697C298.563 220.568 298.73 220.39 298.854 220.161C298.977 219.927 299.064 219.654 299.117 219.344C299.17 219.033 299.196 218.699 299.196 218.342V218.157C299.196 217.812 299.17 217.486 299.117 217.182C299.064 216.871 298.977 216.599 298.854 216.364C298.73 216.124 298.563 215.937 298.353 215.802C298.142 215.667 297.878 215.6 297.562 215.6C297.251 215.6 296.99 215.667 296.779 215.802C296.574 215.937 296.41 216.124 296.287 216.364C296.164 216.599 296.076 216.871 296.023 217.182C295.971 217.486 295.944 217.812 295.944 218.157ZM308.943 220.82V209.5H311.923V223H309.251L308.943 220.82ZM303.107 218.359V218.175C303.107 217.454 303.187 216.798 303.345 216.206C303.503 215.608 303.737 215.096 304.048 214.668C304.358 214.234 304.745 213.9 305.208 213.666C305.671 213.432 306.204 213.314 306.808 213.314C307.347 213.314 307.818 213.44 308.223 213.692C308.627 213.938 308.973 214.284 309.26 214.729C309.547 215.175 309.781 215.696 309.963 216.294C310.145 216.886 310.282 217.524 310.376 218.21V218.43C310.282 219.074 310.145 219.684 309.963 220.258C309.781 220.826 309.547 221.33 309.26 221.77C308.973 222.209 308.624 222.555 308.214 222.807C307.81 223.053 307.335 223.176 306.79 223.176C306.187 223.176 305.653 223.056 305.19 222.815C304.733 222.575 304.35 222.238 304.039 221.805C303.734 221.371 303.503 220.861 303.345 220.275C303.187 219.689 303.107 219.051 303.107 218.359ZM306.069 218.175V218.359C306.069 218.717 306.093 219.048 306.14 219.353C306.187 219.657 306.266 219.927 306.377 220.161C306.494 220.39 306.646 220.568 306.834 220.697C307.027 220.826 307.265 220.891 307.546 220.891C307.927 220.891 308.24 220.8 308.486 220.618C308.738 220.437 308.923 220.179 309.04 219.845C309.163 219.511 309.216 219.118 309.198 218.667V217.973C309.21 217.586 309.184 217.246 309.119 216.953C309.055 216.654 308.952 216.405 308.812 216.206C308.677 216.007 308.504 215.857 308.293 215.758C308.088 215.652 307.845 215.6 307.563 215.6C307.288 215.6 307.054 215.664 306.86 215.793C306.673 215.922 306.521 216.104 306.403 216.338C306.286 216.566 306.201 216.839 306.148 217.155C306.096 217.466 306.069 217.806 306.069 218.175ZM318.207 223.176C317.434 223.176 316.742 223.056 316.133 222.815C315.523 222.569 315.008 222.232 314.586 221.805C314.17 221.377 313.851 220.885 313.628 220.328C313.411 219.771 313.303 219.183 313.303 218.562V218.228C313.303 217.53 313.399 216.886 313.593 216.294C313.786 215.696 314.073 215.175 314.454 214.729C314.835 214.284 315.312 213.938 315.887 213.692C316.461 213.44 317.129 213.314 317.891 213.314C318.564 213.314 319.168 213.423 319.701 213.64C320.234 213.856 320.686 214.167 321.055 214.571C321.43 214.976 321.714 215.465 321.907 216.039C322.106 216.613 322.206 217.258 322.206 217.973V219.177H314.437V217.322H319.314V217.094C319.32 216.777 319.265 216.508 319.147 216.285C319.036 216.062 318.872 215.893 318.655 215.775C318.438 215.658 318.175 215.6 317.864 215.6C317.542 215.6 317.275 215.67 317.064 215.811C316.859 215.951 316.698 216.145 316.581 216.391C316.47 216.631 316.391 216.909 316.344 217.226C316.297 217.542 316.273 217.876 316.273 218.228V218.562C316.273 218.913 316.32 219.232 316.414 219.52C316.514 219.807 316.654 220.053 316.836 220.258C317.023 220.457 317.246 220.612 317.504 220.724C317.768 220.835 318.066 220.891 318.4 220.891C318.805 220.891 319.203 220.814 319.596 220.662C319.988 220.51 320.325 220.258 320.606 219.906L321.951 221.506C321.758 221.781 321.482 222.048 321.125 222.306C320.773 222.563 320.352 222.774 319.859 222.938C319.367 223.097 318.816 223.176 318.207 223.176ZM323.604 221.611C323.604 221.189 323.756 220.838 324.061 220.557C324.365 220.27 324.758 220.126 325.238 220.126C325.725 220.126 326.117 220.27 326.416 220.557C326.721 220.838 326.873 221.189 326.873 221.611C326.873 222.033 326.721 222.388 326.416 222.675C326.117 222.956 325.725 223.097 325.238 223.097C324.758 223.097 324.365 222.956 324.061 222.675C323.756 222.388 323.604 222.033 323.604 221.611ZM329.079 213.49H332.05V223.308C332.05 224.069 331.903 224.711 331.61 225.232C331.317 225.76 330.898 226.158 330.354 226.428C329.809 226.703 329.158 226.841 328.402 226.841C328.15 226.841 327.919 226.829 327.708 226.806C327.491 226.788 327.254 226.75 326.996 226.691V224.45C327.148 224.474 327.289 224.491 327.418 224.503C327.547 224.521 327.688 224.529 327.84 224.529C328.109 224.529 328.335 224.485 328.517 224.397C328.698 224.31 328.836 224.175 328.93 223.993C329.029 223.812 329.079 223.583 329.079 223.308V213.49ZM328.859 211.038C328.859 210.616 329.012 210.271 329.316 210.001C329.621 209.731 330.017 209.597 330.503 209.597C330.989 209.597 331.385 209.731 331.689 210.001C331.994 210.271 332.146 210.616 332.146 211.038C332.146 211.46 331.994 211.806 331.689 212.075C331.385 212.345 330.989 212.479 330.503 212.479C330.017 212.479 329.621 212.345 329.316 212.075C329.012 211.806 328.859 211.46 328.859 211.038ZM338.712 220.328C338.712 220.164 338.656 220.023 338.545 219.906C338.439 219.783 338.252 219.672 337.982 219.572C337.713 219.467 337.335 219.361 336.849 219.256C336.386 219.156 335.949 219.024 335.539 218.86C335.135 218.696 334.78 218.497 334.476 218.263C334.171 218.028 333.931 217.75 333.755 217.428C333.585 217.105 333.5 216.736 333.5 216.32C333.5 215.916 333.585 215.535 333.755 215.178C333.931 214.814 334.186 214.495 334.52 214.22C334.859 213.938 335.272 213.719 335.759 213.561C336.245 213.396 336.799 213.314 337.42 213.314C338.275 213.314 339.014 213.446 339.635 213.71C340.256 213.968 340.733 214.331 341.067 214.8C341.407 215.263 341.577 215.799 341.577 216.408H338.615C338.615 216.168 338.574 215.963 338.492 215.793C338.416 215.623 338.29 215.494 338.114 215.406C337.938 215.312 337.704 215.266 337.411 215.266C337.206 215.266 337.019 215.304 336.849 215.38C336.685 215.456 336.553 215.562 336.453 215.696C336.354 215.831 336.304 215.989 336.304 216.171C336.304 216.3 336.333 216.417 336.392 216.522C336.456 216.622 336.553 216.716 336.682 216.804C336.811 216.886 336.975 216.962 337.174 217.032C337.373 217.097 337.613 217.155 337.895 217.208C338.533 217.325 339.131 217.492 339.688 217.709C340.244 217.926 340.695 218.233 341.041 218.632C341.393 219.03 341.568 219.566 341.568 220.24C341.568 220.662 341.472 221.052 341.278 221.409C341.085 221.761 340.807 222.071 340.443 222.341C340.08 222.604 339.644 222.81 339.134 222.956C338.624 223.103 338.05 223.176 337.411 223.176C336.503 223.176 335.735 223.015 335.108 222.692C334.481 222.364 334.007 221.954 333.685 221.462C333.368 220.964 333.21 220.46 333.21 219.95H335.97C335.981 220.243 336.052 220.483 336.181 220.671C336.315 220.858 336.494 220.996 336.717 221.084C336.939 221.172 337.197 221.216 337.49 221.216C337.76 221.216 337.982 221.178 338.158 221.102C338.34 221.025 338.478 220.923 338.571 220.794C338.665 220.659 338.712 220.504 338.712 220.328Z" fill="white"/>
<rect x="246" y="196" width="130" height="41" rx="3" stroke="#424242" stroke-width="4"/>
<rect x="396" y="196" width="124" height="41" rx="3" fill="#424242"/>
<path d="M420.585 210.203H423.099L425.955 219.106L428.812 210.203H431.325L426.975 223H424.936L420.585 210.203ZM419.056 210.203H421.657L422.141 220.012V223H419.056V210.203ZM430.253 210.203H432.863V223H429.77V220.012L430.253 210.203ZM434.331 218.342V218.157C434.331 217.46 434.431 216.818 434.63 216.232C434.829 215.641 435.122 215.128 435.509 214.694C435.896 214.261 436.373 213.924 436.941 213.684C437.51 213.438 438.166 213.314 438.91 213.314C439.66 213.314 440.319 213.438 440.888 213.684C441.462 213.924 441.942 214.261 442.329 214.694C442.716 215.128 443.009 215.641 443.208 216.232C443.407 216.818 443.507 217.46 443.507 218.157V218.342C443.507 219.033 443.407 219.675 443.208 220.267C443.009 220.853 442.716 221.365 442.329 221.805C441.942 222.238 441.465 222.575 440.896 222.815C440.328 223.056 439.672 223.176 438.928 223.176C438.184 223.176 437.524 223.056 436.95 222.815C436.376 222.575 435.896 222.238 435.509 221.805C435.122 221.365 434.829 220.853 434.63 220.267C434.431 219.675 434.331 219.033 434.331 218.342ZM437.293 218.157V218.342C437.293 218.699 437.319 219.033 437.372 219.344C437.425 219.654 437.513 219.927 437.636 220.161C437.759 220.39 437.926 220.568 438.137 220.697C438.348 220.826 438.611 220.891 438.928 220.891C439.238 220.891 439.496 220.826 439.701 220.697C439.912 220.568 440.079 220.39 440.202 220.161C440.325 219.927 440.413 219.654 440.466 219.344C440.519 219.033 440.545 218.699 440.545 218.342V218.157C440.545 217.812 440.519 217.486 440.466 217.182C440.413 216.871 440.325 216.599 440.202 216.364C440.079 216.124 439.912 215.937 439.701 215.802C439.49 215.667 439.227 215.6 438.91 215.6C438.6 215.6 438.339 215.667 438.128 215.802C437.923 215.937 437.759 216.124 437.636 216.364C437.513 216.599 437.425 216.871 437.372 217.182C437.319 217.486 437.293 217.812 437.293 218.157ZM447.734 215.521V223H444.772V213.49H447.55L447.734 215.521ZM447.383 217.92L446.688 217.938C446.688 217.211 446.776 216.563 446.952 215.995C447.128 215.421 447.377 214.935 447.699 214.536C448.021 214.138 448.405 213.836 448.851 213.631C449.302 213.42 449.803 213.314 450.354 213.314C450.793 213.314 451.194 213.379 451.558 213.508C451.927 213.637 452.243 213.845 452.507 214.132C452.776 214.419 452.981 214.8 453.122 215.274C453.269 215.743 453.342 216.323 453.342 217.015V223H450.362V217.006C450.362 216.625 450.31 216.335 450.204 216.136C450.099 215.931 449.946 215.79 449.747 215.714C449.548 215.638 449.305 215.6 449.018 215.6C448.713 215.6 448.455 215.658 448.244 215.775C448.033 215.893 447.863 216.057 447.734 216.268C447.611 216.473 447.521 216.716 447.462 216.997C447.409 217.278 447.383 217.586 447.383 217.92ZM460.962 213.49H463.651V222.631C463.651 223.51 463.449 224.254 463.045 224.863C462.641 225.479 462.075 225.944 461.349 226.261C460.628 226.583 459.784 226.744 458.817 226.744C458.39 226.744 457.953 226.688 457.508 226.577C457.062 226.472 456.646 226.313 456.26 226.103C455.873 225.892 455.548 225.631 455.284 225.32L456.523 223.58C456.764 223.85 457.065 224.078 457.429 224.266C457.792 224.459 458.22 224.556 458.712 224.556C459.14 224.556 459.497 224.479 459.784 224.327C460.077 224.175 460.3 223.952 460.452 223.659C460.604 223.372 460.681 223.023 460.681 222.613V215.74L460.962 213.49ZM454.643 218.359V218.175C454.643 217.454 454.73 216.798 454.906 216.206C455.088 215.608 455.346 215.096 455.68 214.668C456.02 214.234 456.43 213.9 456.91 213.666C457.391 213.432 457.933 213.314 458.536 213.314C459.187 213.314 459.72 213.44 460.136 213.692C460.558 213.938 460.895 214.284 461.146 214.729C461.404 215.175 461.604 215.696 461.744 216.294C461.891 216.886 462.014 217.524 462.113 218.21V218.43C462.014 219.074 461.876 219.684 461.7 220.258C461.53 220.826 461.308 221.33 461.032 221.77C460.757 222.209 460.411 222.555 459.995 222.807C459.585 223.053 459.093 223.176 458.519 223.176C457.921 223.176 457.382 223.056 456.901 222.815C456.427 222.575 456.02 222.238 455.68 221.805C455.346 221.371 455.088 220.861 454.906 220.275C454.73 219.689 454.643 219.051 454.643 218.359ZM457.604 218.175V218.359C457.604 218.717 457.637 219.048 457.701 219.353C457.771 219.657 457.877 219.927 458.018 220.161C458.158 220.39 458.331 220.568 458.536 220.697C458.747 220.826 458.993 220.891 459.274 220.891C459.702 220.891 460.048 220.8 460.312 220.618C460.575 220.437 460.766 220.179 460.883 219.845C461 219.511 461.05 219.118 461.032 218.667V217.973C461.044 217.586 461.018 217.246 460.953 216.953C460.889 216.654 460.786 216.405 460.646 216.206C460.511 216.007 460.329 215.857 460.101 215.758C459.878 215.652 459.608 215.6 459.292 215.6C459.017 215.6 458.773 215.664 458.562 215.793C458.352 215.922 458.176 216.104 458.035 216.338C457.895 216.566 457.786 216.839 457.71 217.155C457.64 217.466 457.604 217.806 457.604 218.175ZM464.987 218.342V218.157C464.987 217.46 465.087 216.818 465.286 216.232C465.485 215.641 465.778 215.128 466.165 214.694C466.552 214.261 467.029 213.924 467.598 213.684C468.166 213.438 468.822 213.314 469.566 213.314C470.316 213.314 470.976 213.438 471.544 213.684C472.118 213.924 472.599 214.261 472.985 214.694C473.372 215.128 473.665 215.641 473.864 216.232C474.063 216.818 474.163 217.46 474.163 218.157V218.342C474.163 219.033 474.063 219.675 473.864 220.267C473.665 220.853 473.372 221.365 472.985 221.805C472.599 222.238 472.121 222.575 471.553 222.815C470.984 223.056 470.328 223.176 469.584 223.176C468.84 223.176 468.181 223.056 467.606 222.815C467.032 222.575 466.552 222.238 466.165 221.805C465.778 221.365 465.485 220.853 465.286 220.267C465.087 219.675 464.987 219.033 464.987 218.342ZM467.949 218.157V218.342C467.949 218.699 467.976 219.033 468.028 219.344C468.081 219.654 468.169 219.927 468.292 220.161C468.415 220.39 468.582 220.568 468.793 220.697C469.004 220.826 469.268 220.891 469.584 220.891C469.895 220.891 470.152 220.826 470.357 220.697C470.568 220.568 470.735 220.39 470.858 220.161C470.981 219.927 471.069 219.654 471.122 219.344C471.175 219.033 471.201 218.699 471.201 218.342V218.157C471.201 217.812 471.175 217.486 471.122 217.182C471.069 216.871 470.981 216.599 470.858 216.364C470.735 216.124 470.568 215.937 470.357 215.802C470.146 215.667 469.883 215.6 469.566 215.6C469.256 215.6 468.995 215.667 468.784 215.802C468.579 215.937 468.415 216.124 468.292 216.364C468.169 216.599 468.081 216.871 468.028 217.182C467.976 217.486 467.949 217.812 467.949 218.157ZM479.779 223H476.94L476.958 220.627H479.779C480.365 220.627 480.86 220.486 481.265 220.205C481.675 219.924 481.985 219.505 482.196 218.948C482.413 218.386 482.521 217.694 482.521 216.874V216.32C482.521 215.705 482.46 215.166 482.337 214.703C482.22 214.234 482.044 213.845 481.81 213.534C481.575 213.218 481.282 212.98 480.931 212.822C480.585 212.664 480.187 212.585 479.735 212.585H476.888V210.203H479.735C480.603 210.203 481.396 210.353 482.117 210.651C482.844 210.944 483.471 211.366 483.998 211.917C484.531 212.462 484.941 213.109 485.229 213.859C485.521 214.604 485.668 215.43 485.668 216.338V216.874C485.668 217.776 485.521 218.603 485.229 219.353C484.941 220.103 484.534 220.75 484.007 221.295C483.479 221.84 482.855 222.262 482.135 222.561C481.42 222.854 480.635 223 479.779 223ZM478.707 210.203V223H475.622V210.203H478.707ZM492.497 217.56H489.201L489.184 215.538H491.855C492.336 215.538 492.72 215.485 493.007 215.38C493.294 215.269 493.502 215.107 493.631 214.896C493.766 214.686 493.833 214.422 493.833 214.105C493.833 213.742 493.766 213.449 493.631 213.227C493.496 213.004 493.282 212.843 492.989 212.743C492.702 212.638 492.33 212.585 491.873 212.585H490.361V223H487.276V210.203H491.873C492.664 210.203 493.37 210.276 493.991 210.423C494.612 210.563 495.14 210.78 495.573 211.073C496.013 211.366 496.347 211.735 496.575 212.181C496.804 212.62 496.918 213.139 496.918 213.736C496.918 214.258 496.807 214.747 496.584 215.204C496.361 215.661 495.989 216.033 495.468 216.32C494.952 216.602 494.246 216.748 493.35 216.76L492.497 217.56ZM492.374 223H488.454L489.509 220.627H492.374C492.796 220.627 493.133 220.562 493.385 220.434C493.643 220.299 493.827 220.123 493.938 219.906C494.056 219.684 494.114 219.438 494.114 219.168C494.114 218.84 494.059 218.556 493.947 218.315C493.842 218.075 493.672 217.891 493.438 217.762C493.203 217.627 492.89 217.56 492.497 217.56H489.904L489.922 215.538H493.024L493.745 216.347C494.601 216.312 495.277 216.432 495.775 216.707C496.279 216.982 496.64 217.346 496.856 217.797C497.073 218.248 497.182 218.72 497.182 219.212C497.182 220.05 497 220.75 496.637 221.312C496.279 221.875 495.743 222.297 495.028 222.578C494.313 222.859 493.429 223 492.374 223Z" fill="white"/>
<rect x="396" y="196" width="124" height="41" rx="3" stroke="#424242" stroke-width="4"/>
</svg>
